REM DIRINDEX 1\2,1\3
REM DIRNAME folder01,folder02,folder03
TITLE ""
FILE "Track41.mp3" MP3
  TRACK 01 AUDIO
    TITLE "2:cjc103_445"
    INDEX 01 00:00:00
  TRACK 02 AUDIO
    TITLE "0:"
    INDEX 01 00:20:43
  TRACK 03 AUDIO
    TITLE "3:cjc103_446"
    INDEX 01 00:21:39
  TRACK 04 AUDIO
    TITLE "0:"
    INDEX 01 00:22:70
  TRACK 05 AUDIO
    TITLE "3:cjc103_447"
    INDEX 01 00:24:00
  TRACK 06 AUDIO
    TITLE "0:"
    INDEX 01 00:25:37
  TRACK 07 AUDIO
    TITLE "3:cjc103_448"
    INDEX 01 00:26:46
  TRACK 08 AUDIO
    TITLE "0:"
    INDEX 01 00:28:04
  TRACK 09 AUDIO
    TITLE "2:cjc103_449"
    INDEX 01 00:29:25
  TRACK 10 AUDIO
    TITLE "0:"
    INDEX 01 00:30:06
  TRACK 11 AUDIO
    TITLE "3:cjc103_450"
    INDEX 01 00:31:02
  TRACK 12 AUDIO
    TITLE "0:"
    INDEX 01 00:32:37
  TRACK 13 AUDIO
    TITLE "3:cjc103_451"
    INDEX 01 00:33:46
  TRACK 14 AUDIO
    TITLE "0:"
    INDEX 01 00:34:67
  TRACK 15 AUDIO
    TITLE "3:cjc103_452"
    INDEX 01 00:36:13
  TRACK 16 AUDIO
    TITLE "0:"
    INDEX 01 00:37:56
  TRACK 17 AUDIO
    TITLE "3:cjc103_453"
    INDEX 01 00:38:53
  TRACK 18 AUDIO
    TITLE "0:"
    INDEX 01 00:40:23
  TRACK 19 AUDIO
    TITLE "3:cjc103_454"
    INDEX 01 00:41:26
  TRACK 20 AUDIO
    TITLE "0:"
    INDEX 01 00:42:55
  TRACK 21 AUDIO
    TITLE "3:cjc103_455"
    INDEX 01 00:44:01
  TRACK 22 AUDIO
    TITLE "0:"
    INDEX 01 00:45:22
  TRACK 23 AUDIO
    TITLE "3:cjc103_456"
    INDEX 01 00:46:53
  TRACK 24 AUDIO
    TITLE "0:"
    INDEX 01 00:48:02
  TRACK 25 AUDIO
    TITLE "3:cjc103_457"
    INDEX 01 00:49:29
  TRACK 26 AUDIO
    TITLE "0:"
    INDEX 01 00:50:44
  TRACK 27 AUDIO
    TITLE "3:cjc103_458"
    INDEX 01 00:52:10
  TRACK 28 AUDIO
    TITLE "0:"
    INDEX 01 00:53:43
  TRACK 29 AUDIO
    TITLE "3:cjc103_459"
    INDEX 01 00:55:04
  TRACK 30 AUDIO
    TITLE "0:"
    INDEX 01 00:56:25
  TRACK 31 AUDIO
    TITLE "3:cjc103_460"
    INDEX 01 00:57:66
  TRACK 32 AUDIO
    TITLE "0:"
    INDEX 01 00:59:02
  TRACK 33 AUDIO
    TITLE "2:cjc103_461"
    INDEX 01 01:00:35
  TRACK 34 AUDIO
    TITLE "0:"
    INDEX 01 01:22:62
  TRACK 35 AUDIO
    TITLE "3:cjc103_462"
    INDEX 01 01:24:02
  TRACK 36 AUDIO
    TITLE "0:"
    INDEX 01 01:25:13
  TRACK 37 AUDIO
    TITLE "3:cjc103_463"
    INDEX 01 01:26:56
  TRACK 38 AUDIO
    TITLE "0:"
    INDEX 01 01:28:14
  TRACK 39 AUDIO
    TITLE "3:cjc103_464"
    INDEX 01 01:29:70
  TRACK 40 AUDIO
    TITLE "0:"
    INDEX 01 01:31:08
  TRACK 41 AUDIO
    TITLE "3:cjc103_465"
    INDEX 01 01:32:55
  TRACK 42 AUDIO
    TITLE "0:"
    INDEX 01 01:34:16
  TRACK 43 AUDIO
    TITLE "3:cjc103_466"
    INDEX 01 01:35:69
  TRACK 44 AUDIO
    TITLE "0:"
    INDEX 01 01:37:32
  TRACK 45 AUDIO
    TITLE "2:cjc103_467"
    INDEX 01 01:38:47
  TRACK 46 AUDIO
    TITLE "0:"
    INDEX 01 01:40:11
  TRACK 47 AUDIO
    TITLE "3:cjc103_468"
    INDEX 01 01:41:12
  TRACK 48 AUDIO
    TITLE "0:"
    INDEX 01 01:42:55
  TRACK 49 AUDIO
    TITLE "3:cjc103_469"
    INDEX 01 01:44:01
  TRACK 50 AUDIO
    TITLE "0:"
    INDEX 01 01:45:22
  TRACK 51 AUDIO
    TITLE "3:cjc103_470"
    INDEX 01 01:47:19
  TRACK 52 AUDIO
    TITLE "0:"
    INDEX 01 01:48:46
  TRACK 53 AUDIO
    TITLE "3:cjc103_471"
    INDEX 01 01:50:53
  TRACK 54 AUDIO
    TITLE "0:"
    INDEX 01 01:52:16
  TRACK 55 AUDIO
    TITLE "3:cjc103_472"
    INDEX 01 01:53:70
  TRACK 56 AUDIO
    TITLE "0:"
    INDEX 01 01:55:16
  TRACK 57 AUDIO
    TITLE "2:cjc103_473"
    INDEX 01 01:56:37
  TRACK 58 AUDIO
    TITLE "0:"
    INDEX 01 01:59:16
  TRACK 59 AUDIO
    TITLE "3:cjc103_474"
    INDEX 01 02:00:22
  TRACK 60 AUDIO
    TITLE "0:"
    INDEX 01 02:01:50
  TRACK 61 AUDIO
    TITLE "3:cjc103_475"
    INDEX 01 02:03:16
  TRACK 62 AUDIO
    TITLE "0:"
    INDEX 01 02:04:43
  TRACK 63 AUDIO
    TITLE "3:cjc103_476"
    INDEX 01 02:06:28
  TRACK 64 AUDIO
    TITLE "0:"
    INDEX 01 02:07:49
  TRACK 65 AUDIO
    TITLE "3:cjc103_477"
    INDEX 01 02:09:24
  TRACK 66 AUDIO
    TITLE "0:"
    INDEX 01 02:10:55
  TRACK 67 AUDIO
    TITLE "2:cjc103_478"
    INDEX 01 02:12:03
  TRACK 68 AUDIO
    TITLE "0:"
    INDEX 01 02:13:46
  TRACK 69 AUDIO
    TITLE "3:cjc103_479"
    INDEX 01 02:15:09
  TRACK 70 AUDIO
    TITLE "0:"
    INDEX 01 02:16:34
  TRACK 71 AUDIO
    TITLE "3:cjc103_480"
    INDEX 01 02:18:06
  TRACK 72 AUDIO
    TITLE "0:"
    INDEX 01 02:19:35
  TRACK 73 AUDIO
    TITLE "3:cjc103_481"
    INDEX 01 02:20:60
  TRACK 74 AUDIO
    TITLE "0:"
    INDEX 01 02:22:02
  TRACK 75 AUDIO
    TITLE "2:cjc103_482"
    INDEX 01 02:23:30
  TRACK 76 AUDIO
    TITLE "0:"
    INDEX 01 02:26:58
  TRACK 77 AUDIO
    TITLE "3:cjc103_483"
    INDEX 01 02:27:65
  TRACK 78 AUDIO
    TITLE "0:"
    INDEX 01 02:29:11
  TRACK 79 AUDIO
    TITLE "3:cjc103_484"
    INDEX 01 02:30:29
  TRACK 80 AUDIO
    TITLE "0:"
    INDEX 01 02:31:61
  TRACK 81 AUDIO
    TITLE "3:cjc103_485"
    INDEX 01 02:32:69
  TRACK 82 AUDIO
    TITLE "0:"
    INDEX 01 02:34:18
